{"title":"Power 2014 S03E06 The Right Direct 1080p WEBRip HEVC DD5.1 x265","uid":15624650,"size":1008556222,"categoryP":"video","categoryS":"hd___tv_shows","magnet":"?xt=urn:btih:7ad06c64d946fdcd0defd49988528cc631b1241e&amp;dn=Power+2014+S03E06+The+Right+Direct+1080p+WEBRip+HEVC+DD5.1+x265&amp;tr=udp%3A%2F%2Ftracker.leechers-paradise.org%3A6969&amp;tr=udp%3A%2F%2Fzer0day.ch%3A1337&amp;tr=udp%3A%2F%2Fopen.demonii.com%3A1337&amp;tr=udp%3A%2F%2Ftracker.coppersurfer.tk%3A6969&amp;tr=udp%3A%2F%2Fexodus.desync.com%3A6969","seeders":2,"leechers":0,"uploader":"nayhtut","files":1,"time":1471901639,"description":"[Screenshots]\r\n \nhttps://s3.postimg.org/xgzgep5ab/Power_S03_E06_The_Right_Direction_1080p_WEBRip_HE.jpg \nhttps://s3.postimg.org/agst2d7gj/Power_S03_E06_The_Right_Direction_1080p_WEBRip_HE.jpg \nhttps://s3.postimg.org/44dnsj4eb/Power_S03_E06_The_Right_Direction_1080p_WEBRip_HE.jpg\r\n   \r\n\r\nSource:  Power S03E06 The Right Direction 1080p AMZN WEBRip DD5 1 x264-NTb (3.54 GB)\r\n \r\n\r\n__--__--__--__--__--__--__--__--__--__--__--__--__--\r\n\r\n\r\nComplete name                            : Power.S03E06.The.Right.Direction.1080p.WEBRip.HEVC.DD5.1.x265.mkv\r\nFormat                                   : Matroska\r\nFormat version                           : Version 4 / Version 2\r\nFile size                                : 962 MiB\r\nDuration                                 : 58mn 59s\r\nOverall bit rate                         : 2 279 Kbps\r\nWriting application                      : Lavf57.25.100\r\nWriting library                          : Lavf57.25.100\r\n\r\nVideo\r\n\r\nID                                       : 1\r\nFormat                                   : V_MPEGH/ISO/HEVC\r\nCodec ID                                 : V_MPEGH/ISO/HEVC\r\nDuration                                 : 58mn 59s\r\nBit rate                                 : 1 850 Kbps\r\nWidth                                    : 1 920 pixels\r\nHeight                                   : 1 080 pixels\r\nDisplay aspect ratio                     : 16:9\r\nFrame rate                               : 25.000 fps\r\nBits/(Pixel*Frame)                       : 0.036\r\nStream size                              : 781 MiB (81%)\r\nWriting library                          : Lavc57.48.101 libx265\r\nDefault                                  : Yes\r\nForced                                   : No\r\nDURATION                                 : 00:58:59.651000000\r\n\r\nAudio\r\n\r\nID                                       : 2\r\nFormat                                   : AC-3\r\nFormat/Info                              : Audio Coding 3\r\nMode extension                           : CM (complete main)\r\nFormat settings, Endianness              : Big\r\nCodec ID                                 : A_AC3\r\nDuration                                 : 58mn 59s\r\nBit rate mode                            : Constant\r\nBit rate                                 : 384 Kbps\r\nChannel(s)                               : 6 channels\r\nChannel positions                        : Front: L C R, Side: L R, LFE\r\nSampling rate                            : 48.0 KHz\r\nBit depth                                : 16 bits\r\nCompression mode                         : Lossy\r\nStream size                              : 162 MiB (17%)\r\nWriting library                          : Lavc57.24.102 ac3\r\nLanguage                                 : English\r\nDefault                                  : Yes\r\nForced                                   : No\r\nDURATION                                 : 00:58:59.679000000\r\n\r\nText\r\n\r\nID                                       : 3\r\nFormat                                   : ASS\r\nCodec ID                                 : S_TEXT/ASS\r\nCodec ID/Info                            : Advanced Sub Station Alpha\r\nCompression mode                         : Lossless\r\nWriting library                          : Lavc57.48.101 ssa\r\nLanguage                                 : English\r\nDefault                                  : No\r\nForced                                   : No\r\nDURATION                                 : 00:58:09.671000000\r\n\r\n__--__--__--__--__--__--__--__--__--__--__--__--__--\r\n\r\n\r\nIMDb: http://www.imdb.com/title/tt3281796\r\n\r\n\r\n__--__--__--__--__--__--__--__--__--__--__--__--__--\r\n\r\n\r\nAfter adding torrent with magnet link,\r\n\r\nplease add this  following trackers list to the torrent for better seeds.\r\n\r\n\r\nudp://tracker.coppersurfer.tk:6969/announce\r\n\r\nudp://tracker.opentrackr.org:1337/announce\r\n \nhttp://tracker.baravik.org:6970/announce\r\n \nhttp://tracker2.wasabii.com.tw:6969/announce\r\n\r\nudp://9.rarbg.me:2710/announce\r\n\r\n\r\n__--__--__--__--__--__--__--__--__--__--__--__--__--\r\n\r\n Enjoy!","torrent":{"xt":"urn:btih:7ad06c64d946fdcd0defd49988528cc631b1241e","amp;dn":"Power+2014+S03E06+The+Right+Direct+1080p+WEBRip+HEVC+DD5.1+x265","amp;tr":["udp%3A%2F%2Ftracker.leechers-paradise.org%3A6969","udp%3A%2F%2Fzer0day.ch%3A1337","udp%3A%2F%2Fopen.demonii.com%3A1337","udp%3A%2F%2Ftracker.coppersurfer.tk%3A6969","udp%3A%2F%2Fexodus.desync.com%3A6969"],"infoHash":"7ad06c64d946fdcd0defd49988528cc631b1241e","infoHashBuffer":{"type":"Buffer","data":[122,208,108,100,217,70,253,205,13,239,212,153,136,82,140,198,49,177,36,30]},"announce":[],"urlList":[]}}